<svg width="106" height="104" viewBox="0 0 106 104" fill="none" xmlns="http://www.w3.org/2000/svg">
<path d="M35.334 72.0364H38.867V59.8965C37.7169 59.9891 36.482 60.0628 35.334 60.107V72.0364Z" fill="#D0BD96"/>
<path d="M61.834 72.036H65.367V50.8711C64.2827 51.5467 62.9862 52.3128 61.834 52.9569V72.036Z" fill="#D0BD96"/>
<path d="M67.1338 49.6991V72.0363H70.6668V47.064C69.6759 47.8448 68.4048 48.7982 67.1338 49.6991Z" fill="#D0BD96"/>
<path d="M56.5342 72.0361H60.0672V53.8809C58.9383 54.4386 57.7331 54.99 56.5342 55.5099V72.0361Z" fill="#D0BD96"/>
<path d="M51.2324 72.0364H54.7676V56.2153C53.6203 56.6447 52.4419 57.0537 51.2324 57.4424V72.0364Z" fill="#D0BD96"/>
<path d="M45.9331 72.0364H49.4683V57.9644C48.3076 58.278 47.1341 58.5642 45.9331 58.8336V72.0364Z" fill="#D0BD96"/>
<path d="M40.6333 72.036H44.1663V59.1763C42.9993 59.3867 41.8725 59.5509 40.6333 59.713V72.036Z" fill="#D0BD96"/>
<path d="M49.0248 26.7296C48.0954 26.4076 47.2042 26.0834 46.3745 25.7656V54.3539C47.2636 54.0276 48.1569 53.6825 49.0248 53.3268V26.7296Z" fill="#D0BD96"/>
<path d="M43.725 24.6442C42.7065 24.1769 41.8535 23.7644 41.0747 23.3813V55.9854C41.6688 55.8275 42.8062 55.5265 43.725 55.2403V24.6442Z" fill="#D0BD96"/>
<path d="M54.3266 28.2408C53.4099 28.045 52.525 27.763 51.6763 27.5483V52.1566C52.5738 51.723 53.4735 51.2705 54.3266 50.8222V28.2408Z" fill="#D0BD96"/>
<path d="M59.6259 29.2363C58.7191 29.096 57.8357 28.9515 56.9756 28.8027V49.311C57.8944 48.7448 58.7962 48.166 59.6259 47.6125V29.2363Z" fill="#D0BD96"/>
<path d="M64.9193 29.7434C64.444 29.7182 62.7104 29.5898 62.269 29.5498V45.7013C63.2451 44.9836 64.1257 44.2638 64.9193 43.5482V29.7434Z" fill="#D0BD96"/>
<path d="M70.3758 34.9167V34.9377C70.3394 37.1704 69.4258 39.3007 67.8295 40.8751L67.6406 41.0372V30.3242C67.7595 30.3937 67.8762 30.461 67.9907 30.5221C68.6635 30.9413 69.228 31.5107 69.6392 32.185C70.0504 32.8593 70.2968 33.6196 70.3588 34.4052V34.4284C70.3716 34.5926 70.3737 34.7504 70.3758 34.9167Z" fill="#D0BD96"/>
<path d="M69.784 0L68.0186 0.559852V27.0813L69.784 27.2686V0Z" fill="#D0BD96"/>
<path d="M64.4951 1.87939L62.7275 2.63709V26.1782C63.3047 26.2989 63.8939 26.4133 64.4951 26.5213V1.87939Z" fill="#D0BD96"/>
<path d="M59.1914 4.36719C58.5866 4.67658 57.9989 5.03228 57.4238 5.34588V24.7997L59.1914 25.3238V4.36719Z" fill="#D0BD96"/>
<path d="M53.888 7.54932C53.279 7.93448 52.6849 8.40172 52.1226 8.78899V22.8526L53.888 23.5725V7.54932Z" fill="#D0BD96"/>
<path d="M48.5841 21.0995V11.7861C47.4234 13.2805 46.634 15.0042 46.6743 17.231C46.6819 17.9762 46.8574 18.7103 47.1878 19.3796C47.5182 20.0489 47.9953 20.6365 48.5841 21.0995Z" fill="#D0BD96"/>
<path d="M22.9361 102.569C22.9361 103.432 22.4035 103.916 21.5292 103.916H20.4131V98.9424H21.4741C22.2613 98.9424 22.7366 99.4012 22.7366 100.205C22.7366 100.75 22.5244 101.203 21.9812 101.335C22.6538 101.464 22.9361 101.952 22.9361 102.569ZM20.6444 99.1571V101.237H21.5122C22.1934 101.237 22.4947 100.788 22.4947 100.201C22.4947 99.517 22.1276 99.1592 21.4656 99.1592L20.6444 99.1571ZM22.7027 102.569C22.7027 101.937 22.3101 101.449 21.5186 101.449H20.6444V103.699H21.5292C22.2761 103.699 22.7005 103.312 22.7005 102.569H22.7027Z" fill="#D0BD96"/>
<path d="M25.1802 102.567V98.9424H25.4115V102.567C25.4115 103.364 25.8168 103.764 26.4427 103.764C27.0687 103.764 27.4719 103.364 27.4719 102.567V98.9424H27.7032V102.567C27.7032 103.491 27.2024 103.983 26.4427 103.983C25.6831 103.983 25.1802 103.491 25.1802 102.567Z" fill="#D0BD96"/>
<path d="M29.9409 102.758H30.1722C30.2337 103.39 30.5966 103.779 31.1907 103.779C31.3238 103.788 31.4572 103.768 31.582 103.722C31.7068 103.675 31.8201 103.603 31.9145 103.509C32.0089 103.416 32.0821 103.304 32.1293 103.18C32.1764 103.056 32.1965 102.924 32.188 102.792C32.188 101.489 29.9876 101.426 29.9876 100.003C29.9842 99.8492 30.0129 99.6959 30.072 99.5531C30.1311 99.4104 30.2193 99.2813 30.3311 99.174C30.4429 99.0667 30.5758 98.9835 30.7215 98.9296C30.8673 98.8756 31.0227 98.8521 31.178 98.8606C31.8698 98.8606 32.326 99.3425 32.3769 100.083H32.1456C32.0862 99.4288 31.7212 99.0795 31.1865 99.0795C31.0604 99.0709 30.9338 99.0886 30.815 99.1315C30.6962 99.1745 30.5878 99.2416 30.4968 99.3287C30.4058 99.4158 30.3343 99.5208 30.2868 99.637C30.2393 99.7533 30.2169 99.8781 30.221 100.003C30.221 101.266 32.4215 101.325 32.4215 102.792C32.4275 102.953 32.3998 103.114 32.3399 103.264C32.28 103.414 32.1893 103.55 32.0735 103.664C31.9578 103.777 31.8196 103.865 31.6676 103.923C31.5156 103.981 31.3532 104.006 31.1907 103.998C30.4353 103.998 29.9897 103.487 29.9409 102.758Z" fill="#D0BD96"/>
<path d="M34.7373 98.9424H34.9665V103.916H34.7373V98.9424Z" fill="#D0BD96"/>
<path d="M37.6014 98.9424H37.8348L39.6279 102.71C39.7382 102.939 39.8677 103.232 39.9631 103.44C39.9631 103.23 39.9462 102.941 39.9462 102.712V98.9424H40.1753V103.916H39.9419L38.1362 100.113C38.0343 99.9021 37.9049 99.5969 37.82 99.4096C37.82 99.6517 37.82 99.9463 37.82 100.19V103.916H37.5908L37.6014 98.9424Z" fill="#D0BD96"/>
<path d="M45.0635 103.701V103.912H42.8228V98.9424H45.0402V99.1529H43.0519V101.279H44.8938V101.489H43.0519V103.699L45.0635 103.701Z" fill="#D0BD96"/>
<path d="M47.0981 102.758H47.3273C47.391 103.39 47.7517 103.779 48.348 103.779C48.4809 103.788 48.6142 103.768 48.7389 103.722C48.8636 103.675 48.9769 103.603 49.0711 103.509C49.1653 103.416 49.2383 103.304 49.2852 103.18C49.3321 103.056 49.3519 102.924 49.3431 102.792C49.3431 101.489 47.1448 101.426 47.1448 100.003C47.1411 99.8493 47.1695 99.696 47.2284 99.5533C47.2873 99.4106 47.3753 99.2815 47.4869 99.1741C47.5985 99.0668 47.7313 98.9835 47.8769 98.9296C48.0226 98.8756 48.1779 98.8521 48.3331 98.8606C49.0249 98.8606 49.4811 99.3425 49.532 100.083H49.3028C49.2434 99.4288 48.8784 99.0795 48.3437 99.0795C48.2174 99.0706 48.0906 99.0881 47.9716 99.1309C47.8525 99.1736 47.7439 99.2408 47.6526 99.3279C47.5614 99.415 47.4897 99.5201 47.442 99.6365C47.3944 99.7529 47.3719 99.8779 47.3761 100.003C47.3761 101.266 49.5766 101.325 49.5766 102.792C49.5826 102.953 49.5549 103.114 49.4951 103.264C49.4354 103.414 49.3449 103.549 49.2294 103.663C49.1139 103.776 48.9759 103.865 48.8242 103.922C48.6724 103.98 48.5103 104.006 48.348 103.998C47.5883 103.998 47.1406 103.487 47.0981 102.758Z" fill="#D0BD96"/>
<path d="M51.6128 102.758H51.842C51.9056 103.39 52.2663 103.779 52.8626 103.779C52.9956 103.788 53.1289 103.768 53.2536 103.722C53.3783 103.675 53.4915 103.603 53.5857 103.509C53.68 103.416 53.753 103.304 53.7999 103.18C53.8468 103.056 53.8665 102.924 53.8578 102.792C53.8578 101.489 51.6595 101.426 51.6595 100.003C51.6557 99.8493 51.6842 99.696 51.7431 99.5533C51.8019 99.4106 51.8899 99.2815 52.0015 99.1741C52.1131 99.0668 52.2459 98.9835 52.3916 98.9296C52.5372 98.8756 52.6925 98.8521 52.8478 98.8606C53.5395 98.8606 53.9957 99.3425 54.0467 100.083H53.8175C53.7581 99.4288 53.4037 99.0795 52.8584 99.0795C52.7321 99.0706 52.6053 99.0881 52.4862 99.1309C52.3672 99.1736 52.2585 99.2408 52.1673 99.3279C52.0761 99.415 52.0043 99.5201 51.9567 99.6365C51.909 99.7529 51.8866 99.8779 51.8908 100.003C51.8908 101.266 54.0912 101.325 54.0912 102.792C54.0973 102.953 54.0695 103.114 54.0098 103.264C53.95 103.414 53.8595 103.549 53.744 103.663C53.6285 103.776 53.4905 103.865 53.3388 103.922C53.1871 103.98 53.0249 104.006 52.8626 103.998C52.1072 103.998 51.6595 103.487 51.6128 102.758Z" fill="#D0BD96"/>
<path d="M59.5449 102.539V100.323C59.5449 99.3547 60.0457 98.8496 60.8011 98.8496C61.599 98.8496 62.0552 99.3105 62.1209 100.209H61.8939C61.8281 99.4305 61.4695 99.0601 60.8011 99.0601C60.1794 99.0601 59.7698 99.4663 59.7698 100.323V102.539C59.7698 103.381 60.1815 103.789 60.8096 103.789C61.4844 103.789 61.8706 103.415 61.9279 102.64H62.1613C62.0997 103.535 61.6265 104 60.8181 104C60.0393 104 59.5449 103.503 59.5449 102.539Z" fill="#D0BD96"/>
<path d="M66.712 103.701V103.912H64.4712V98.9424H66.6886V99.1529H64.7067V101.279H66.5464V101.489H64.7067V103.699L66.712 103.701Z" fill="#D0BD96"/>
<path d="M69.0534 98.9424H69.2889L71.0713 102.71C71.1817 102.939 71.3132 103.232 71.4066 103.44C71.4066 103.23 71.3896 102.941 71.3896 102.712V98.9424H71.6209V103.916H71.3854L69.586 100.113C69.4863 99.9021 69.3547 99.5969 69.2719 99.4096C69.2719 99.6517 69.2826 99.9463 69.2826 100.19V103.916H69.0513L69.0534 98.9424Z" fill="#D0BD96"/>
<path d="M76.3457 99.1568H75.1956V103.916H74.9664V99.1568H73.8418V98.9463H76.3457V99.1568Z" fill="#D0BD96"/>
<path d="M80.7901 103.701V103.912H78.5493V98.9424H80.7689V99.1529H78.7806V101.279H80.6182V101.489H78.7785V103.699L80.7901 103.701Z" fill="#D0BD96"/>
<path d="M84.121 101.824H83.3635V103.916H83.1343V98.9424H84.1952C85.0631 98.9424 85.5151 99.4391 85.5151 100.359C85.5151 101.226 85.0907 101.756 84.3692 101.817L85.5894 103.922H85.3326L84.121 101.824ZM83.3635 101.613H84.2525C84.8891 101.613 85.2817 101.192 85.2817 100.369C85.2817 99.5464 84.9146 99.1613 84.1931 99.1613H83.3635V101.613Z" fill="#D0BD96"/>
<path d="M0 90.9505H1.31959C1.38324 92.7879 2.44613 93.7582 4.10729 93.7582C5.91483 93.7582 6.81012 92.6385 6.81012 91.0347C6.81012 87.6145 0.212153 87.5935 0.212153 83.3083C0.212153 81.2815 1.76511 79.6987 4.06485 79.6987C6.39854 79.6987 7.85179 81.3446 7.95786 83.6682H6.63827C6.55341 81.8097 5.53295 80.9658 4.10729 80.9658C2.49068 80.9658 1.56145 81.8939 1.56145 83.3083C1.56145 86.7285 8.15729 86.6022 8.15729 91.0347C8.15729 93.0405 6.77617 95.0336 4.1582 95.0336C1.68025 95.0252 0.063646 93.3983 0 90.9505Z" fill="#D0BD96"/>
<path d="M16.3355 91.2876H11.6172L10.7453 94.7498H9.33447L13.2551 79.979H14.7019L18.6183 94.7562H17.2138L16.3355 91.2876ZM16.0364 90.1069L14.511 83.9779C14.2776 83.0708 14.0655 82.0143 13.9997 81.6628H13.9573C13.8936 82.0206 13.6815 83.0771 13.4481 83.9779L11.9164 90.1005L16.0364 90.1069Z" fill="#D0BD96"/>
<path d="M21.8092 81.1766V86.8593H26.8521V88.0632H21.8092V94.7541H20.4917V79.979H27.2148V81.1829L21.8092 81.1766Z" fill="#D0BD96"/>
<path d="M29.4277 79.979H30.7476V94.7562H29.4277V79.979Z" fill="#D0BD96"/>
<path d="M34.0229 79.979H35.385L39.4159 88.5936C39.9272 89.6459 40.6888 91.4013 41.0325 92.2452L41.0961 92.2242C41.0325 91.1466 40.9264 89.2271 40.9264 87.9601V79.979H42.246V94.7562H40.884L36.8106 86.0827C36.3439 85.0913 35.578 83.2329 35.3001 82.5047L35.2365 82.5257C35.2789 83.6454 35.3425 85.3334 35.3425 86.4952V94.7688H34.0229V79.979Z" fill="#D0BD96"/>
<path d="M51.1098 91.2876H46.3872L45.5153 94.7498H44.1108L48.0251 79.979H49.472L53.3883 94.7562H51.9775L51.1098 91.2876ZM50.8128 90.1069L49.281 83.9779C49.0455 83.0708 48.8334 82.0143 48.7697 81.6628H48.7273C48.6636 82.0206 48.4515 83.0771 48.216 83.9779L46.6843 90.1005L50.8128 90.1069Z" fill="#D0BD96"/>
<path d="M66.4335 80.6104H63.02V94.7477H62.3347V80.6104H58.9976V79.979H66.4335V80.6104Z" fill="#D0BD96"/>
<path d="M67.04 90.5446V84.1884C67.04 81.286 68.5909 79.7222 71.0603 79.7222C73.5298 79.7222 75.0785 81.286 75.0785 84.1884V90.5446C75.0785 93.4322 73.5298 94.996 71.0603 94.996C68.5909 94.996 67.04 93.4322 67.04 90.5446ZM74.389 90.5446V84.1884C74.389 81.6627 73.131 80.3746 71.0603 80.3746C68.9897 80.3746 67.7189 81.6627 67.7189 84.1884V90.5446C67.7189 93.0702 68.977 94.3436 71.0497 94.3436C73.1225 94.3436 74.3784 93.0639 74.3784 90.5446H74.389Z" fill="#D0BD96"/>
<path d="M75.6836 79.9787H76.4176L78.6516 90.6896C78.851 91.6767 79.1247 92.929 79.2881 93.7877H79.3114C79.4854 92.929 79.7357 91.7377 79.9479 90.6307L82.1649 80.1892H82.918L85.0735 90.4118C85.3111 91.5799 85.5763 92.8617 85.7651 93.7793H85.7884C85.9645 92.8596 86.2552 91.5315 86.4673 90.4854L88.6568 79.9619H89.3908L86.1767 94.7496H85.3875L83.1874 84.7733C82.9753 83.7209 82.7207 82.3465 82.551 81.2984H82.5277C82.3601 82.3508 82.1033 83.7251 81.8912 84.7733L79.6912 94.7496H78.902L75.6836 79.9787Z" fill="#D0BD96"/>
<path d="M97.0703 94.1163V94.7477H90.415V79.979H97.0024V80.6104H91.0982V86.9245H96.5654V87.556H91.0982V94.1247L97.0703 94.1163Z" fill="#D0BD96"/>
<path d="M101.645 88.5367H99.3981V94.7498H98.7129V79.979H101.861C104.439 79.979 105.784 81.4523 105.784 84.1884C105.784 86.7667 104.511 88.3431 102.375 88.5262L106 94.7562H105.239L101.645 88.5367ZM99.3981 87.9053H102.046C103.923 87.9053 105.103 86.6572 105.103 84.2116C105.103 81.8017 104.012 80.6188 101.872 80.6188H99.3981V87.9053Z" fill="#D0BD96"/>
</svg>
