<svg width="152" height="18" viewBox="0 0 152 18" fill="none" xmlns="http://www.w3.org/2000/svg">
  <path
    d="M4.68238 17.7905C1.89838 17.7905 0.074375 15.9425 0.00237504 13.1585H1.49038C1.56238 15.2465 2.76237 16.3505 4.63438 16.3505C6.67438 16.3505 7.68238 15.0785 7.68238 13.2545C7.68238 9.36651 0.242375 9.34252 0.242375 4.47051C0.242375 2.16652 1.99438 0.366514 4.58638 0.366514C7.22638 0.366514 8.85838 2.23851 8.97838 4.87851H7.49038C7.39438 2.76651 6.24238 1.80651 4.63438 1.80651C2.81038 1.80651 1.75438 2.86251 1.75438 4.47051C1.75438 8.35852 9.19438 8.21452 9.19438 13.2545C9.19438 15.5345 7.63438 17.7905 4.68238 17.7905ZM19.4174 17.4785L18.4334 13.5425H13.1054L12.1214 17.4785H10.5374L14.9534 0.678514H16.5854L21.0014 17.4785H19.4174ZM13.4414 12.1985H18.0974L16.3694 5.23851C16.1054 4.20651 15.8654 3.00651 15.7934 2.59852H15.7454C15.6734 3.00651 15.4334 4.20651 15.1694 5.23851L13.4414 12.1985ZM30.6976 2.04652H24.6016V8.50252H30.2896V9.87052H24.6016V17.4785H23.1136V0.678514H30.6976V2.04652ZM33.1918 17.4785V0.678514H34.6798V17.4785H33.1918ZM38.3714 17.4785V0.678514H39.9074L44.4434 10.4705C45.0194 11.6705 45.8834 13.6625 46.2674 14.6225L46.3394 14.5985C46.2674 13.3745 46.1474 11.1905 46.1474 9.75051V0.678514H47.6354V17.4785H46.0994L41.5154 7.61452C40.9874 6.48651 40.1234 4.37452 39.8114 3.53451L39.7394 3.55851C39.7874 4.83052 39.8594 6.75051 39.8594 8.07052V17.4785H38.3714ZM58.6284 17.4785L57.6444 13.5425H52.3164L51.3324 17.4785H49.7484L54.1644 0.678514H55.7964L60.2124 17.4785H58.6284ZM52.6524 12.1985H57.3084L55.5804 5.23851C55.3164 4.20651 55.0764 3.00651 55.0044 2.59852H54.9564C54.8844 3.00651 54.6444 4.20651 54.3804 5.23851L52.6524 12.1985ZM78.1529 0.678514H78.9689V17.4305H78.2009V5.07052C78.2009 4.13451 78.2009 3.27052 78.2249 2.43051H78.2009C77.9369 3.15052 77.5769 3.96652 77.2409 4.80652L73.8569 13.1105H73.0889L69.6809 4.80652C69.3449 3.96652 69.0089 3.15052 68.7209 2.43051H68.6969C68.7209 3.27052 68.7449 4.13451 68.7449 5.07052V17.4305H67.9769V0.678514H68.7929L72.5129 9.75051C72.8249 10.4945 73.1849 11.4545 73.4489 12.1505H73.4729C73.7609 11.4545 74.0969 10.4945 74.4089 9.75051L78.1529 0.678514ZM87.0804 17.7665C84.2724 17.7665 82.5444 15.9905 82.5444 12.7025V5.47852C82.5444 2.19052 84.2724 0.414515 87.0804 0.414515C89.8644 0.414515 91.5924 2.19052 91.5924 5.47852V12.7025C91.5924 15.9905 89.8644 17.7665 87.0804 17.7665ZM87.0804 17.0225C89.4084 17.0225 90.8244 15.5825 90.8244 12.7025V5.47852C90.8244 2.59852 89.4084 1.15852 87.0804 1.15852C84.7284 1.15852 83.3124 2.59852 83.3124 5.47852V12.7025C83.3124 15.5825 84.7284 17.0225 87.0804 17.0225ZM95.9559 16.7585H102.172V17.4785H95.1879V0.678514H95.9559V16.7585ZM104.493 17.4785V0.678514H105.261V17.4785H104.493ZM117.265 17.4785L111.601 8.59852L110.065 10.6385V17.4785H109.297V0.678514H110.065V9.46252L110.857 8.35852L116.617 0.678514H117.577L112.105 7.95052L118.177 17.4785H117.265ZM120.524 17.4785V0.678514H121.292V17.4785H120.524ZM127.801 17.4785V11.2385L123.529 0.678514H124.345L127.273 7.99852C127.561 8.74252 127.873 9.48652 128.185 10.2545C128.473 9.48652 128.785 8.74252 129.073 7.97451L132.001 0.678514H132.817L128.569 11.2385V17.4785H127.801ZM142.141 17.4785L140.941 12.8945H135.109L133.909 17.4785H133.093L137.581 0.678514H138.469L142.957 17.4785H142.141ZM135.301 12.1745H140.749L138.973 5.35852C138.637 4.08651 138.301 2.79051 138.037 1.68651H138.013C137.749 2.79051 137.413 4.08651 137.077 5.35852L135.301 12.1745ZM151.179 0.678514V1.42251H147.315V17.4785H146.547V1.42251H142.779V0.678514H151.179Z"
    fill="#D0BD96" />
</svg>
