<svg width="280" height="240" viewBox="0 0 280 240" fill="none" xmlns="http://www.w3.org/2000/svg">
<mask id="mask0_2670_55022" style="mask-type:alpha" maskUnits="userSpaceOnUse" x="93" y="123" width="93" height="67">
<path d="M93.8965 189.308H103.098V157.432C100.108 157.675 96.8917 157.869 93.8965 157.985V189.308Z" fill="#D0BD96"/>
<path d="M162.926 189.308H172.133V133.735C169.304 135.509 165.933 137.521 162.926 139.212V189.308Z" fill="#D0BD96"/>
<path d="M176.731 130.657V189.308H185.938V123.733C183.351 125.789 180.041 128.292 176.731 130.657Z" fill="#D0BD96"/>
<path d="M149.121 189.308H158.322V141.638C155.382 143.103 152.243 144.551 149.121 145.916V189.308Z" fill="#D0BD96"/>
<path d="M135.344 189.308H144.517V147.767C141.529 148.894 138.462 149.968 135.316 150.989L135.344 189.308Z" fill="#D0BD96"/>
<path d="M121.528 189.308H130.713V152.359C127.69 153.183 124.634 153.934 121.506 154.642L121.528 189.308Z" fill="#D0BD96"/>
<path d="M107.712 189.308H116.908V155.542C113.863 156.095 110.929 156.526 107.701 156.952L107.712 189.308Z" fill="#D0BD96"/>
</mask>
<g mask="url(#mask0_2670_55022)">
<rect x="93.8965" y="123.733" width="92.042" height="65.5754" fill="#D0BD96"/>
</g>
<mask id="mask1_2670_55022" style="mask-type:alpha" maskUnits="userSpaceOnUse" x="108" y="61" width="78" height="87">
<path d="M129.47 70.3782C127.044 69.5327 124.723 68.6816 122.568 67.8472V142.911C124.883 142.054 127.21 141.148 129.47 140.214V70.3782Z" fill="#D0BD96"/>
<path d="M115.66 64.9017C113.013 63.6749 110.785 62.5917 108.757 61.5859V147.194C110.31 146.78 113.272 145.989 115.66 145.238V64.9017Z" fill="#D0BD96"/>
<path d="M143.274 74.3465C140.893 73.8325 138.583 73.092 136.372 72.5283V137.142C138.715 136.004 141.053 134.815 143.274 133.638V74.3465Z" fill="#D0BD96"/>
<path d="M157.08 76.9602C154.725 76.601 152.415 76.2252 150.177 75.8218V129.67C152.57 128.184 154.919 126.664 157.08 125.21V76.9602Z" fill="#D0BD96"/>
<path d="M170.884 78.2916C169.646 78.2253 165.131 77.8882 163.982 77.7832V120.192C166.524 118.308 168.817 116.418 170.884 114.539V78.2916Z" fill="#D0BD96"/>
<path d="M185.082 91.8758V91.9311C184.997 97.7899 182.627 103.384 178.478 107.521L177.986 107.946V79.8174C178.295 79.9998 178.605 80.1766 178.898 80.3369C180.652 81.4349 182.124 82.9296 183.195 84.7005C184.267 86.4715 184.907 88.4692 185.065 90.5329C185.068 90.5531 185.068 90.5735 185.065 90.5937C185.071 91.0247 185.082 91.4392 185.082 91.8758Z" fill="#D0BD96"/>
</mask>
<g mask="url(#mask1_2670_55022)">
<rect x="108.757" y="61.5859" width="76.3228" height="85.6077" fill="#D0BD96"/>
</g>
<mask id="mask2_2670_55022" style="mask-type:alpha" maskUnits="userSpaceOnUse" x="123" y="0" width="61" height="72">
<path d="M183.478 0.114258L178.88 1.58426V71.2213L183.478 71.7131V0.114258Z" fill="#D0BD96"/>
<path d="M169.673 5.04932L165.07 7.03879V68.8506C166.573 69.1674 168.107 69.4677 169.673 69.7514V5.04932Z" fill="#D0BD96"/>
<path d="M155.869 11.5811C154.299 12.3934 152.763 13.3274 151.265 14.1508V65.2305L155.869 66.6065V11.5811Z" fill="#D0BD96"/>
<path d="M142.064 19.937C140.472 20.9483 138.925 22.1752 137.46 23.192V60.1188L142.064 62.0088V19.937Z" fill="#D0BD96"/>
<path d="M128.259 55.5159V31.062C125.231 34.9857 123.175 39.5117 123.285 45.3586C123.305 47.3154 123.761 49.2432 124.622 51.0007C125.482 52.7582 126.725 54.301 128.259 55.5159Z" fill="#D0BD96"/>
</mask>
<g mask="url(#mask2_2670_55022)">
<rect x="123.281" y="0.114258" width="60.1983" height="71.5976" fill="#D0BD96"/>
</g>
<mask id="mask3_2670_55022" style="mask-type:alpha" maskUnits="userSpaceOnUse" x="1" y="205" width="278" height="35">
<path d="M10.6277 239.754C5.19679 239.754 1.63863 236.149 1.49817 230.718H4.40088C4.54134 234.791 6.88223 236.945 10.534 236.945C14.5136 236.945 16.4799 234.464 16.4799 230.906C16.4799 223.321 1.96635 223.274 1.96635 213.77C1.96635 209.276 5.38406 205.764 10.4404 205.764C15.5904 205.764 18.774 209.416 19.0081 214.566H16.1054C15.9181 210.446 13.6708 208.573 10.534 208.573C6.97587 208.573 4.91588 210.633 4.91588 213.77C4.91588 221.355 19.4294 221.074 19.4294 230.906C19.4294 235.353 16.3863 239.754 10.6277 239.754ZM39.372 239.146L37.4525 231.467H27.0589L25.1394 239.146H22.0494L30.6639 206.373H33.8475L42.462 239.146H39.372ZM27.7144 228.846H36.797L33.4262 215.268C32.9112 213.255 32.443 210.914 32.3025 210.118H32.2089C32.0684 210.914 31.6003 213.255 31.0853 215.268L27.7144 228.846ZM61.3768 209.042H49.4851V221.636H60.5809V224.304H49.4851V239.146H46.5824V206.373H61.3768V209.042ZM66.2422 239.146V206.373H69.1449V239.146H66.2422ZM76.3465 239.146V206.373H79.3428L88.1914 225.475C89.315 227.816 91.0005 231.701 91.7496 233.574L91.89 233.527C91.7496 231.14 91.5155 226.879 91.5155 224.07V206.373H94.4182V239.146H91.4218L82.4796 219.903C81.4496 217.703 79.7642 213.583 79.1556 211.944L79.0151 211.991C79.1087 214.472 79.2492 218.218 79.2492 220.793V239.146H76.3465ZM115.863 239.146L113.943 231.467H103.55L101.63 239.146H98.54L107.154 206.373H110.338L118.953 239.146H115.863ZM104.205 228.846H113.288L109.917 215.268C109.402 213.255 108.934 210.914 108.793 210.118H108.699C108.559 210.914 108.091 213.255 107.576 215.268L104.205 228.846ZM155.047 206.373H156.639V239.052H155.141V214.941C155.141 213.115 155.141 211.429 155.188 209.791H155.141C154.626 211.195 153.924 212.787 153.268 214.426L146.667 230.625H145.169L138.521 214.426C137.865 212.787 137.21 211.195 136.648 209.791H136.601C136.648 211.429 136.695 213.115 136.695 214.941V239.052H135.197V206.373H136.788L144.045 224.07C144.654 225.521 145.356 227.394 145.871 228.752H145.918C146.48 227.394 147.135 225.521 147.744 224.07L155.047 206.373ZM170.122 239.707C164.644 239.707 161.273 236.243 161.273 229.829V215.737C161.273 209.322 164.644 205.858 170.122 205.858C175.553 205.858 178.923 209.322 178.923 215.737V229.829C178.923 236.243 175.553 239.707 170.122 239.707ZM170.122 238.256C174.663 238.256 177.425 235.447 177.425 229.829V215.737C177.425 210.118 174.663 207.309 170.122 207.309C165.533 207.309 162.771 210.118 162.771 215.737V229.829C162.771 235.447 165.533 238.256 170.122 238.256ZM185.095 237.741H197.22V239.146H183.596V206.373H185.095V237.741ZM199.407 239.146V206.373H200.905V239.146H199.407ZM221.982 239.146L210.933 221.823L207.937 225.802V239.146H206.438V206.373H207.937V223.508L209.482 221.355L220.718 206.373H222.591L211.916 220.559L223.761 239.146H221.982ZM225.998 239.146V206.373H227.496V239.146H225.998ZM237.852 239.146V226.973L229.518 206.373H231.11L236.822 220.652C237.384 222.104 237.992 223.555 238.601 225.053C239.163 223.555 239.771 222.104 240.333 220.606L246.045 206.373H247.637L239.35 226.973V239.146H237.852ZM263.486 239.146L261.145 230.203H249.768L247.428 239.146H245.836L254.591 206.373H256.323L265.078 239.146H263.486ZM250.143 228.799H260.771L257.306 215.502C256.651 213.021 255.995 210.493 255.48 208.339H255.433C254.918 210.493 254.263 213.021 253.608 215.502L250.143 228.799ZM278.775 206.373V207.824H271.237V239.146H269.739V207.824H262.388V206.373H278.775Z" fill="#D0BD96"/>
</mask>
<g mask="url(#mask3_2670_55022)">
<rect y="204.794" width="280" height="35.8022" fill="#D0BD96"/>
</g>
</svg>
