<svg xmlns="http://www.w3.org/2000/svg" width="127" height="16" fill="none" viewBox="0 0 127 16">
  <path fill="#D0BD96"
    d="M3.985 15.26c-2.32 0-3.84-1.54-3.9-3.86h1.24c.06 1.74 1.06 2.66 2.62 2.66 1.7 0 2.54-1.06 2.54-2.58 0-3.24-6.2-3.26-6.2-7.32 0-1.92 1.46-3.42 3.62-3.42 2.2 0 3.56 1.56 3.66 3.76h-1.24c-.08-1.76-1.04-2.56-2.38-2.56-1.52 0-2.4.88-2.4 2.22 0 3.24 6.2 3.12 6.2 7.32 0 1.9-1.3 3.78-3.76 3.78Zm12.28-.26-.82-3.28h-4.44l-.82 3.28h-1.32l3.68-14h1.36l3.68 14h-1.32Zm-4.98-4.4h3.88l-1.44-5.8c-.22-.86-.42-1.86-.48-2.2h-.04c-.06.34-.26 1.34-.48 2.2l-1.44 5.8Zm14.38-8.46h-5.08v5.38h4.74v1.14h-4.74V15h-1.24V1h6.32v1.14ZM27.743 15V1h1.24v14h-1.24Zm4.317 0V1h1.28l3.78 8.16c.48 1 1.2 2.66 1.52 3.46l.06-.02c-.06-1.02-.16-2.84-.16-4.04V1h1.24v14H38.5l-3.82-8.22c-.44-.94-1.16-2.7-1.42-3.4l-.06.02c.04 1.06.1 2.66.1 3.76V15h-1.24Zm16.88 0-.82-3.28h-4.44L42.86 15h-1.32l3.68-14h1.36l3.68 14h-1.32Zm-4.98-4.4h3.88L46.4 4.8c-.22-.86-.42-1.86-.48-2.2h-.04c-.06.34-.26 1.34-.48 2.2l-1.44 5.8ZM65.21 1h.68v13.96h-.64V4.66c0-.78 0-1.5.02-2.2h-.02c-.22.6-.52 1.28-.8 1.98l-2.82 6.92h-.64l-2.84-6.92c-.28-.7-.56-1.38-.8-1.98h-.02c.02.7.04 1.42.04 2.2v10.3h-.64V1h.68l3.1 7.56c.26.62.56 1.42.78 2h.02c.24-.58.52-1.38.78-2L65.21 1Zm7.44 14.24c-2.34 0-3.78-1.48-3.78-4.22V5c0-2.74 1.44-4.22 3.78-4.22 2.32 0 3.76 1.48 3.76 4.22v6.02c0 2.74-1.44 4.22-3.76 4.22Zm0-.62c1.94 0 3.12-1.2 3.12-3.6V5c0-2.4-1.18-3.6-3.12-3.6-1.96 0-3.14 1.2-3.14 3.6v6.02c0 2.4 1.18 3.6 3.14 3.6Zm7.397-.22h5.18v.6h-5.82V1h.64v13.4Zm7.114.6V1h.64v14h-.64Zm10.643 0-4.72-7.4-1.28 1.7V15h-.64V1h.64v7.32l.66-.92 4.8-6.4h.8l-4.56 6.06 5.06 7.94h-.76Zm2.716 0V1h.64v14h-.64Zm6.064 0V9.8l-3.56-8.8h.68l2.44 6.1c.24.62.5 1.24.76 1.88.24-.64.5-1.26.74-1.9l2.44-6.08h.68l-3.54 8.8V15h-.64Zm11.95 0-1-3.82h-4.86l-1 3.82h-.68l3.74-14h.74l3.74 14h-.68Zm-5.7-4.42h4.54l-1.48-5.68c-.28-1.06-.56-2.14-.78-3.06h-.02c-.22.92-.5 2-.78 3.06l-1.48 5.68ZM126.065 1v.62h-3.22V15h-.64V1.62h-3.14V1h7Z" />
</svg>