<svg xmlns="http://www.w3.org/2000/svg" width="52" height="52" fill="none" viewBox="0 0 52 52">
  <path fill="#D0BD96"
    d="M28.453 4.981V47.17h3.924V12.83l7.85 17.66 7.849-17.66v34.34H52V4.98h-3.925l-7.849 16.68-7.849-16.68h-3.924ZM0 36.033h3.722c.192 5.248 3.145 7.995 7.883 7.995 5.11 0 7.636-3.187 7.636-7.761 0-9.753-18.637-9.808-18.637-21.978C.604 8.519 4.985 4 11.482 4c6.496 0 10.712 4.698 10.987 11.319H18.76c-.247-5.303-3.13-7.706-7.155-7.706-4.573 0-7.21 2.65-7.21 6.676 0 9.739 18.637 9.382 18.637 21.978a10.99 10.99 0 0 1-11.303 11.36C4.752 47.64.179 43.01 0 36.033Z" />
</svg>