<svg width="28" height="55" viewBox="0 0 28 55" fill="none" xmlns="http://www.w3.org/2000/svg">
  <g clip-path="url(#clip0_4078_10484)">
    <mask id="mask0_4078_10484" style="mask-type:luminance" maskUnits="userSpaceOnUse" x="0" y="0" width="28"
      height="55">
      <path d="M28 0H0V55H28V0Z" fill="white" />
    </mask>
    <g mask="url(#mask0_4078_10484)">
      <path opacity="0.1"
        d="M28 27.5C20.2653 27.5 13.991 21.2081 13.991 13.4698L13.991 -5.21966e-07C21.7257 -5.21966e-07 27.982 6.29191 27.982 14.0302V27.5H28Z"
        stroke="#B4A585" stroke-width="0.3" stroke-miterlimit="10" />
      <path opacity="0.1" d="M13.991 0V13.4698C13.991 21.2081 7.73471 27.5 0 27.5V14.0302C0 6.29191 6.27431 0 13.991 0Z"
        stroke="#B4A585" stroke-width="0.3" stroke-miterlimit="10" />
      <path opacity="0.1"
        d="M13.9914 55.0181L13.9914 41.5483C13.9914 33.7919 20.2657 27.5181 27.9824 27.5181L27.9824 40.9878C27.9824 48.7442 21.7081 55.0181 13.9914 55.0181Z"
        stroke="#B4A585" stroke-width="0.3" stroke-miterlimit="10" />
      <path opacity="0.1" d="M0 27.5C7.73471 27.5 13.991 33.7919 13.991 41.5302V55C6.27431 55 0 48.7081 0 40.9698V27.5Z"
        stroke="#B4A585" stroke-width="0.3" stroke-miterlimit="10" />
      <path opacity="0.1"
        d="M13.991 0L13.991 -13.4698C13.991 -21.2081 20.2653 -27.5 28 -27.5L28 -14.0302C28 -6.27383 21.7257 0 14.009 0L13.991 0Z"
        stroke="#B4A585" stroke-width="0.3" stroke-miterlimit="10" />
      <path opacity="0.1"
        d="M0 -27.5C7.73471 -27.5 13.991 -21.2081 13.991 -13.4698V5.21966e-07C6.27431 5.21966e-07 0 -6.29191 0 -14.0302V-27.5Z"
        stroke="#B4A585" stroke-width="0.3" stroke-miterlimit="10" />
      <path opacity="0.1"
        d="M28 82.5181C20.2653 82.5181 14.009 76.2262 14.009 68.4878L14.009 55.0181C21.7437 55.0181 28 61.31 28 69.0483V82.5181Z"
        stroke="#B4A585" stroke-width="0.3" stroke-miterlimit="10" />
      <path opacity="0.1"
        d="M13.991 55V68.4698C13.991 76.2262 7.73471 82.5181 0 82.5181V69.0483C0 61.2919 6.27431 55 13.991 55Z"
        stroke="#B4A585" stroke-width="0.3" stroke-miterlimit="10" />
      <path opacity="0.1"
        d="M41.991 0V13.4698C41.991 21.2262 35.7167 27.5 28 27.5V14.0302C28 6.29191 34.2743 0 41.991 0Z"
        stroke="#B4A585" stroke-width="0.3" stroke-miterlimit="10" />
      <path opacity="0.1"
        d="M28 27.5C35.7347 27.5 41.991 33.7919 41.991 41.5302V55C34.2563 55 28 48.7081 28 40.9698V27.5Z"
        stroke="#B4A585" stroke-width="0.3" stroke-miterlimit="10" />
      <path opacity="0.1"
        d="M0 27.5C-7.71668 27.5 -13.991 21.2081 -13.991 13.4698L-13.991 -5.21966e-07C-6.25628 -5.21966e-07 0 6.29191 0 14.0302L0 27.5Z"
        stroke="#B4A585" stroke-width="0.3" stroke-miterlimit="10" />
      <path opacity="0.1"
        d="M-13.991 55.0181L-13.991 41.5483C-13.991 33.81 -7.71668 27.5181 0 27.5181L0 40.9878C0 48.7262 -6.25628 55.0181 -13.991 55.0181Z"
        stroke="#B4A585" stroke-width="0.3" stroke-miterlimit="10" />
    </g>
  </g>
  <defs>
    <clipPath id="clip0_4078_10484">
      <rect width="28" height="55" fill="white" />
    </clipPath>
  </defs>
</svg>