<svg width="278" height="251" viewBox="0 0 278 251" fill="none" xmlns="http://www.w3.org/2000/svg">
<g clip-path="url(#clip0_2670_51638)">
<path d="M92.8125 190.071H102.048V158.204C99.0415 158.447 95.8133 158.64 92.8125 158.756V190.071Z" fill="#D0BD96"/>
<path d="M162.097 190.07H171.333V134.512C168.498 136.286 165.109 138.297 162.097 139.987V190.07Z" fill="#D0BD96"/>
<path d="M175.952 131.436V190.071H185.187V124.519C182.597 126.568 179.275 129.071 175.952 131.436Z" fill="#D0BD96"/>
<path d="M148.241 190.071H157.476V142.413C154.525 143.877 151.375 145.325 148.241 146.689V190.071Z" fill="#D0BD96"/>
<path d="M134.378 190.07H143.619V148.54C140.62 149.667 137.54 150.741 134.378 151.761V190.07Z" fill="#D0BD96"/>
<path d="M120.522 190.07H129.763V153.131C126.729 153.954 123.662 154.705 120.522 155.413V190.07Z" fill="#D0BD96"/>
<path d="M106.669 190.071H115.904V156.314C112.854 156.866 109.908 157.297 106.669 157.723V190.071Z" fill="#D0BD96"/>
<path d="M128.605 71.1422C126.175 70.2969 123.846 69.4461 121.677 68.6118V143.656C124.001 142.8 126.336 141.894 128.605 140.96V71.1422Z" fill="#D0BD96"/>
<path d="M114.748 65.667C112.086 64.4404 109.856 63.3576 107.82 62.3521V147.938C109.373 147.523 112.346 146.733 114.748 145.982V65.667Z" fill="#D0BD96"/>
<path d="M142.465 75.1092C140.069 74.5954 137.756 73.855 135.537 73.2915V137.888C137.883 136.75 140.235 135.562 142.465 134.385V75.1092Z" fill="#D0BD96"/>
<path d="M156.32 77.7221C153.95 77.3538 151.64 76.9744 149.392 76.584V130.418C151.794 128.932 154.151 127.413 156.32 125.96V77.7221Z" fill="#D0BD96"/>
<path d="M170.16 79.0532C168.918 78.9869 164.386 78.6499 163.232 78.5449V120.943C165.784 119.059 168.086 117.169 170.16 115.291V79.0532Z" fill="#D0BD96"/>
<path d="M184.428 92.6334V92.6886C184.333 98.5492 181.944 104.141 177.772 108.274L177.278 108.7V80.5781C177.588 80.7604 177.894 80.9372 178.193 81.0975C179.952 82.1978 181.427 83.6928 182.502 85.4627C183.577 87.2327 184.221 89.2286 184.383 91.2908V91.3516C184.417 91.7825 184.422 92.1969 184.428 92.6334Z" fill="#D0BD96"/>
<path d="M182.881 0.976562L178.266 2.44618V72.065L182.881 72.5567V0.976562Z" fill="#D0BD96"/>
<path d="M169.053 5.90967L164.433 7.89862V69.6942C165.941 70.011 167.481 70.3112 169.053 70.5948V5.90967Z" fill="#D0BD96"/>
<path d="M155.186 12.4404C153.606 13.2526 152.069 14.1863 150.566 15.0095V66.0758L155.186 67.4515V12.4404Z" fill="#D0BD96"/>
<path d="M141.319 20.7935C139.728 21.8045 138.174 23.031 136.705 24.0476V60.9647L141.319 62.8542V20.7935Z" fill="#D0BD96"/>
<path d="M127.454 56.363V31.9155C124.42 35.8382 122.356 40.363 122.462 46.2083C122.482 48.1645 122.94 50.0915 123.804 51.8485C124.668 53.6054 125.915 55.1479 127.454 56.363Z" fill="#D0BD96"/>
<path d="M0.430664 239.722H3.88074C4.04714 244.546 6.82607 247.093 11.1692 247.093C15.895 247.093 18.2357 244.153 18.2357 239.943C18.2357 230.966 0.985339 230.91 0.985339 219.662C0.985339 214.341 5.04556 210.187 11.0582 210.187C17.1597 210.187 20.9592 214.507 21.2365 220.606H17.7864C17.5646 215.728 14.8966 213.512 11.1692 213.512C6.94255 213.512 4.51307 215.949 4.51307 219.662C4.51307 228.64 21.7579 228.308 21.7579 239.943C21.7579 245.209 18.147 250.441 11.3023 250.441C4.82369 250.419 0.597067 246.148 0.430664 239.722Z" fill="#D0BD96"/>
<path d="M43.1402 240.606H30.8042L28.5245 249.695H24.8359L35.0863 210.921H38.8692L49.1085 249.711H45.4366L43.1402 240.606ZM42.3581 237.507L38.37 221.419C37.7599 219.037 37.2052 216.264 37.0332 215.341H36.9223C36.7559 216.281 36.2012 219.054 35.5911 221.419L31.5863 237.49L42.3581 237.507Z" fill="#D0BD96"/>
<path d="M57.4509 214.065V228.982H70.6355V232.142H57.4509V249.706H54.0063V210.921H71.584V214.082L57.4509 214.065Z" fill="#D0BD96"/>
<path d="M77.3696 210.921H80.8197V249.711H77.3696V210.921Z" fill="#D0BD96"/>
<path d="M89.3823 210.921H92.9433L103.482 233.534C104.819 236.297 106.81 240.904 107.709 243.12L107.875 243.065C107.709 240.236 107.431 235.197 107.431 231.871V210.921H110.882V249.711H107.321L96.6708 226.943C95.4505 224.341 93.4481 219.462 92.7215 217.551L92.5551 217.606C92.666 220.545 92.8324 224.976 92.8324 228.026V249.744H89.3823V210.921Z" fill="#D0BD96"/>
<path d="M134.058 240.606H121.71L119.431 249.694H115.759L125.993 210.921H129.775L140.015 249.711H136.326L134.058 240.606ZM133.281 237.507L129.276 221.418C128.661 219.037 128.106 216.263 127.939 215.341H127.829C127.662 216.28 127.107 219.053 126.492 221.418L122.487 237.49L133.281 237.507Z" fill="#D0BD96"/>
<path d="M174.12 212.578H165.195V249.689H163.404V212.578H154.679V210.921H174.12V212.578Z" fill="#D0BD96"/>
<path d="M175.707 238.656V221.971C175.707 214.352 179.762 210.247 186.218 210.247C192.675 210.247 196.724 214.352 196.724 221.971V238.656C196.724 246.236 192.675 250.341 186.218 250.341C179.762 250.341 175.707 246.236 175.707 238.656ZM194.921 238.656V221.971C194.921 215.341 191.632 211.96 186.218 211.96C180.805 211.96 177.482 215.341 177.482 221.971V238.656C177.482 245.286 180.771 248.628 186.19 248.628C191.61 248.628 194.893 245.269 194.893 238.656H194.921Z" fill="#D0BD96"/>
<path d="M198.307 210.921H200.226L206.067 239.037C206.588 241.628 207.303 244.915 207.731 247.169H207.792C208.246 244.915 208.901 241.788 209.456 238.882L215.252 211.473H217.221L222.857 238.307C223.478 241.374 224.171 244.738 224.665 247.147H224.726C225.186 244.733 225.946 241.247 226.501 238.501L232.225 210.876H234.144L225.741 249.694H223.677L217.925 223.506C217.371 220.744 216.705 217.136 216.261 214.385H216.2C215.762 217.147 215.091 220.755 214.536 223.506L208.784 249.694H206.721L198.307 210.921Z" fill="#D0BD96"/>
<path d="M254.223 248.031V249.689H236.823V210.921H254.045V212.578H238.609V229.153H252.903V230.81H238.609V248.054L254.223 248.031Z" fill="#D0BD96"/>
<path d="M266.181 233.385H260.307V249.694H258.516V210.921H266.747C273.486 210.921 277.003 214.788 277.003 221.971C277.003 228.739 273.675 232.877 268.089 233.357L277.569 249.711H275.577L266.181 233.385ZM260.307 231.728H267.23C272.138 231.728 275.222 228.451 275.222 222.031C275.222 215.705 272.371 212.6 266.775 212.6H260.307V231.728Z" fill="#D0BD96"/>
</g>
<defs>
<clipPath id="clip0_2670_51638">
<rect width="278" height="250" fill="white" transform="translate(0 0.976562)"/>
</clipPath>
</defs>
</svg>
